<svg width="27" height="27" viewBox="0 0 27 27" fill="none" xmlns="http://www.w3.org/2000/svg">
<path d="M9.66035 14.2347L5.50572 12.1176L1.125 11.9918L9.02533 14.591L9.66035 14.2347Z" fill="#FFA015"/>
<path d="M14.1359 5.99068L13.4997 1.6875L12.2925 9.85966L12.7564 10.4186L14.1359 5.99068Z" fill="#FFA015"/>
<path d="M17.081 12.7812L21.7148 13.3607L25.875 11.9918L17.5551 12.2306L17.081 12.7812Z" fill="#FFA015"/>
<path d="M21.5773 4.60454L15.3583 10.0951L15.3521 10.8188L19.2767 8.30705L21.5773 4.60454Z" fill="#FFA015"/>
<path d="M10.5086 11.7674L8.69715 7.49542L5.4227 4.60454L9.79106 11.6355L10.5086 11.7674Z" fill="#FFA015"/>
<path d="M15.4873 17.4178L15.7173 22.0467L17.798 25.875L16.1156 17.7852L15.4873 17.4178Z" fill="#FFA015"/>
<path d="M10.609 16.6657L6.05492 17.6939L2.61778 20.3922L10.3532 17.3438L10.609 16.6657Z" fill="#FFA015"/>
<path d="M17.1343 15.3876L20.3089 18.7867L24.3822 20.3922L17.8541 15.2679L17.1343 15.3876Z" fill="#FFA015"/>
<path d="M10.0878 21.6152L9.20203 25.875L13.1536 18.6052L12.9101 17.9227L10.0878 21.6152Z" fill="#FFA015"/>
<path d="M19.7334 14.0365L15.2747 13.4792L18.1929 10.0879L14.4164 12.505L14.4551 8.04543L13.1278 12.3063L10.269 8.86543L12.012 12.9755L7.59314 12.1632L11.5913 14.2002L7.68009 16.3969L12.0619 15.407L10.4884 19.5844L13.2041 16.0311L14.7047 20.2347L14.4831 15.7806L18.3556 18.0435L15.301 14.773L19.7334 14.0365Z" fill="#FFA015"/>
</svg>
