<svg width="20" height="20" viewBox="0 0 20 20" fill="none" xmlns="http://www.w3.org/2000/svg">
<path d="M4.13867 13.4129C3.84655 13.6938 3.83745 14.1583 4.11833 14.4504C4.39922 14.7425 4.86373 14.7516 5.15585 14.4707L9.55853 10.3127C9.7024 10.1743 9.78372 9.98332 9.78372 9.78372C9.78372 9.58412 9.7024 9.39313 9.55853 9.25479L5.15585 5.09671C4.86373 4.81582 4.39922 4.82493 4.11833 5.11705C3.83744 5.40917 3.84655 5.87369 4.13867 6.15457L7.99126 9.78372L4.13867 13.4129Z" fill="white"/>
<path d="M10.0089 13.4129C9.71679 13.6938 9.70768 14.1583 9.98856 14.4504C10.2694 14.7425 10.734 14.7516 11.0261 14.4707L15.4288 10.3127C15.5726 10.1743 15.6539 9.98332 15.6539 9.78372C15.6539 9.58412 15.5726 9.39313 15.4288 9.25479L11.0261 5.09671C10.734 4.81582 10.2694 4.82493 9.98856 5.11705C9.70768 5.40917 9.71679 5.87369 10.0089 6.15457L13.8615 9.78372L10.0089 13.4129Z" fill="white"/>
</svg>
