<svg width="21" height="21" viewBox="0 0 21 21" fill="none" xmlns="http://www.w3.org/2000/svg">
<path d="M19.0798 8.78631H18.375V8.75H10.5V12.25H15.4451C14.7236 14.2874 12.7851 15.75 10.5 15.75C7.60069 15.75 5.25 13.3993 5.25 10.5C5.25 7.60069 7.60069 5.25 10.5 5.25C11.8383 5.25 13.0559 5.75488 13.9829 6.57956L16.4579 4.10463C14.8951 2.64819 12.8048 1.75 10.5 1.75C5.66781 1.75 1.75 5.66781 1.75 10.5C1.75 15.3322 5.66781 19.25 10.5 19.25C15.3322 19.25 19.25 15.3322 19.25 10.5C19.25 9.91331 19.1896 9.34063 19.0798 8.78631Z" fill="#FFC107"/>
<path d="M2.75781 6.42731L5.63263 8.53563C6.4105 6.60975 8.29438 5.25 10.4989 5.25C11.8373 5.25 13.0548 5.75488 13.9819 6.57956L16.4568 4.10463C14.8941 2.64819 12.8037 1.75 10.4989 1.75C7.13806 1.75 4.22344 3.64744 2.75781 6.42731Z" fill="#FF3D00"/>
<path d="M10.5006 19.2498C12.7608 19.2498 14.8144 18.3849 16.3671 16.9783L13.6589 14.6867C12.7511 15.3775 11.6414 15.751 10.5006 15.7498C8.22475 15.7498 6.29231 14.2986 5.56431 12.2734L2.71094 14.4719C4.15906 17.3056 7.09994 19.2498 10.5006 19.2498Z" fill="#4CAF50"/>
<path d="M19.0798 8.78619H18.375V8.74988H10.5V12.2499H15.4451C15.1 13.2196 14.4783 14.0669 13.657 14.6872L13.6583 14.6863L16.3664 16.9779C16.1748 17.1521 19.25 14.8749 19.25 10.4999C19.25 9.91319 19.1896 9.3405 19.0798 8.78619Z" fill="#1976D2"/>
</svg>
