<svg width="18" height="18" viewBox="0 0 18 18" fill="none" xmlns="http://www.w3.org/2000/svg">
<path d="M9 0C12.5951 0 14.3928 -0.000195332 15.6875 0.856445C16.2657 1.239 16.761 1.73434 17.1436 2.3125C18.0002 3.60723 18 5.40493 18 9C18 12.5951 18.0002 14.3928 17.1436 15.6875C16.761 16.2657 16.2657 16.761 15.6875 17.1436C14.3928 18.0002 12.5951 18 9 18C5.40493 18 3.60723 18.0002 2.3125 17.1436C1.73434 16.761 1.239 16.2657 0.856445 15.6875C-0.000195332 14.3928 0 12.5951 0 9C0 5.40493 -0.000195531 3.60723 0.856445 2.3125C1.239 1.73434 1.73434 1.239 2.3125 0.856445C3.60723 -0.000195531 5.40493 0 9 0ZM8.99902 4.34375C6.42588 4.34387 4.33997 6.42979 4.33984 9.00293C4.33984 11.5762 6.42581 13.662 8.99902 13.6621C11.5723 13.6621 13.6582 11.5763 13.6582 9.00293C13.6581 6.42971 11.5723 4.34375 8.99902 4.34375ZM8.99902 5.91992C10.7016 5.91992 12.0819 7.30034 12.082 9.00293C12.082 10.7056 10.7017 12.0859 8.99902 12.0859C7.29643 12.0858 5.91602 10.7055 5.91602 9.00293C5.91614 7.30042 7.29651 5.92005 8.99902 5.91992ZM13.8408 3.01562C13.2362 3.01568 12.7461 3.50577 12.7461 4.11035C12.7461 4.71497 13.2362 5.20503 13.8408 5.20508C14.4455 5.20508 14.9355 4.71501 14.9355 4.11035C14.9355 3.50574 14.4454 3.01562 13.8408 3.01562Z" fill="white"/>
</svg>
