<svg width="51" height="51" viewBox="0 0 51 51" fill="none" xmlns="http://www.w3.org/2000/svg">
<rect x="0.5" y="0.5" width="50" height="50" rx="25" stroke="black"/>
<path d="M21.9114 16.0889C21.8198 16.0317 21.7154 16.001 21.6089 16C21.5023 15.999 21.3974 16.0278 21.3049 16.0834C21.2123 16.1389 21.1353 16.2193 21.0818 16.3163C21.0282 16.4134 21 16.5237 21 16.6359V31.3641C21 31.4763 21.0282 31.5866 21.0818 31.6837C21.1353 31.7807 21.2123 31.8611 21.3049 31.9166C21.3974 31.9722 21.5023 32.001 21.6089 32C21.7154 31.999 21.8198 31.9683 21.9114 31.9111L33.7044 24.547C33.7945 24.4907 33.8691 24.4106 33.9209 24.3147C33.9727 24.2188 34 24.1104 34 24C34 23.8896 33.9727 23.7812 33.9209 23.6853C33.8691 23.5894 33.7945 23.5093 33.7044 23.453L21.9114 16.0889Z" fill="black" stroke="black" stroke-width="1.5" stroke-linecap="round" stroke-linejoin="round"/>
</svg>
