<svg width="83" height="47" viewBox="0 0 83 47" fill="none" xmlns="http://www.w3.org/2000/svg">
<path d="M82.6549 46.3046L46.528 46.3921C46.4489 43.6761 44.2205 41.5015 41.4869 41.5078C38.753 41.5144 36.5345 43.6999 36.4685 46.4164L0.112169 46.5045L0 0.199953L36.3534 0.11189C36.3873 2.86821 38.6349 5.0888 41.3977 5.08211C44.1603 5.07523 46.3973 2.84385 46.4178 0.0875098L82.5427 3.34024e-07L82.6549 46.3046Z" fill="white" fill-opacity="0.08"/>
<g opacity="0.9">
<path d="M11.7211 25.3126C11.7273 27.8869 9.77702 29.5076 6.67663 29.5151C4.62848 29.52 3.01092 28.8663 1.78632 27.5351L3.32271 25.7087C4.2832 26.6084 5.37413 27.0567 6.5955 27.0537C8.17389 27.0499 8.98018 26.3527 8.97741 25.2065C8.97445 23.9851 7.9959 23.3862 5.51558 23.3922L4.8955 23.3937L4.89131 21.665L7.89016 18.5197L2.51613 18.5328L2.51026 16.1088L11.0974 16.088L11.1027 18.2677L7.89767 21.6201C10.3222 21.8585 11.7158 23.1329 11.7211 25.3126ZM12.359 22.6804C12.2934 18.8661 15.2735 15.7397 19.2384 15.8052C23.203 15.7205 26.1982 18.8324 26.1511 22.647C26.2167 26.4613 23.2365 29.5501 19.2716 29.4846C15.307 29.5693 12.3119 26.4949 12.359 22.6804ZM23.2574 22.654C23.2514 20.1925 21.6311 18.4113 19.2447 18.4171C16.8584 18.4229 15.2467 20.2118 15.2527 22.6734C15.2587 25.1349 16.8789 26.8785 19.2652 26.8727C21.6516 26.8669 23.2633 25.1155 23.2574 22.654ZM26.7286 19.2633C26.7238 17.2715 28.2422 15.7834 30.2528 15.7785C32.2633 15.7737 33.7889 17.2544 33.7938 19.2462C33.7985 21.2192 32.2802 22.7261 30.2696 22.7309C28.259 22.7358 26.7334 21.2363 26.7286 19.2633ZM29.0075 29.1979L37.9762 16.0229L40.3626 16.0171L31.3751 29.1922L29.0075 29.1979ZM31.7456 19.2511C31.7433 18.2928 31.1405 17.6554 30.2573 17.6576C29.3554 17.6598 28.7744 18.3 28.7767 19.2583C28.7791 20.2166 29.3631 20.8541 30.265 20.8519C31.1482 20.8498 31.7479 20.2095 31.7456 19.2511ZM35.5763 25.9688C35.5716 23.9959 37.0899 22.4889 39.1005 22.4841C41.1111 22.4792 42.6367 23.9787 42.6415 25.9517C42.6463 27.9435 41.1279 29.4316 39.1173 29.4365C37.1068 29.4414 35.5812 27.9606 35.5763 25.9688ZM40.5933 25.9567C40.591 24.9984 39.9882 24.361 39.105 24.3631C38.2031 24.3653 37.6222 25.0056 37.6245 25.9639C37.6268 26.9222 38.2108 27.5596 39.1128 27.5575C39.9959 27.5553 40.5957 26.915 40.5933 25.9567ZM44.6592 22.6021C44.5936 18.7878 47.5737 15.6614 51.5386 15.727C55.5032 15.6422 58.4984 18.7542 58.4513 22.5687C58.5169 26.383 55.5367 29.4719 51.5718 29.4063C47.6072 29.4911 44.6121 26.4167 44.6592 22.6021ZM55.5576 22.5757C55.5516 20.1142 53.9313 18.333 51.545 18.3388C49.1586 18.3446 47.547 20.1336 47.5529 22.5951C47.5589 25.0567 49.1791 26.8002 51.5654 26.7945C53.9518 26.7887 55.5635 25.0373 55.5576 22.5757ZM69.4369 18.4458L62.8227 18.4618L62.83 21.4683L69.0684 21.4532L69.0745 23.9899L62.8362 24.005L62.8485 29.1159L60.0676 29.1227L60.0357 15.9695L69.4309 15.9467L69.4369 18.4458ZM80.3925 18.4193L73.7784 18.4353L73.7856 21.4417L80.024 21.4266L80.0302 23.9633L73.7918 23.9784L73.8042 29.0894L71.0232 29.0961L70.9913 15.9429L80.3865 15.9202L80.3925 18.4193Z" fill="white"/>
</g>
<line x1="5.59294" y1="8.71597" x2="77.1929" y2="8.54253" stroke="white" stroke-width="0.671084"/>
<line x1="5.67106" y1="37.5441" x2="77.271" y2="37.3707" stroke="white" stroke-width="0.671084"/>
</svg>
